<svg width="35" height="35" viewBox="0 0 35 35" fill="none" xmlns="http://www.w3.org/2000/svg">
<rect x="4.21143" y="4.21149" width="26.5505" height="26.5505" fill="black"/>
<rect x="7" y="7" width="21" height="21" rx="1" fill="white"/>
<rect x="8.23981" y="8.42291" width="18.3107" height="18.3107" fill="black"/>
<path d="M16.8027 13.8726L14.2139 21H13.1558L16.1367 13.1797H16.8188L16.8027 13.8726ZM18.9727 21L16.3784 13.8726L16.3623 13.1797H17.0444L20.0361 21H18.9727ZM18.8384 18.105V18.9536H14.4448V18.105H18.8384ZM22.0127 15.1885V21H21.0137V15.1885H22.0127ZM20.9385 13.647C20.9385 13.4858 20.9868 13.3498 21.0835 13.2388C21.1838 13.1278 21.3306 13.0723 21.5239 13.0723C21.7137 13.0723 21.8587 13.1278 21.959 13.2388C22.0628 13.3498 22.1147 13.4858 22.1147 13.647C22.1147 13.8009 22.0628 13.9334 21.959 14.0444C21.8587 14.1519 21.7137 14.2056 21.5239 14.2056C21.3306 14.2056 21.1838 14.1519 21.0835 14.0444C20.9868 13.9334 20.9385 13.8009 20.9385 13.647Z" fill="white"/>
<rect x="8.97223" width="1.64796" height="4.21146" fill="black"/>
<rect x="14.0992" width="1.64796" height="4.21146" fill="black"/>
<rect x="19.2263" width="1.64796" height="4.21146" fill="black"/>
<rect x="24.3532" width="1.64796" height="4.21146" fill="black"/>
<rect x="8.97223" y="30.762" width="1.64796" height="4.21146" fill="black"/>
<rect x="14.0992" y="30.762" width="1.64796" height="4.21146" fill="black"/>
<rect x="19.2263" y="30.762" width="1.64796" height="4.21146" fill="black"/>
<rect x="24.3532" y="30.762" width="1.64796" height="4.21146" fill="black"/>
<rect x="34.9734" y="9.15533" width="1.64796" height="4.21146" transform="rotate(90 34.9734 9.15533)" fill="black"/>
<rect x="34.9823" y="14.2823" width="1.64796" height="4.21146" transform="rotate(90 34.9823 14.2823)" fill="black"/>
<rect x="34.9911" y="19.4093" width="1.64796" height="4.21146" transform="rotate(90 34.9911 19.4093)" fill="black"/>
<rect x="35" y="24.5363" width="1.64796" height="4.21146" transform="rotate(90 35 24.5363)" fill="black"/>
<rect x="4.21143" y="9.15533" width="1.64796" height="4.21146" transform="rotate(90 4.21143 9.15533)" fill="black"/>
<rect x="4.22028" y="14.2823" width="1.64796" height="4.21146" transform="rotate(90 4.22028 14.2823)" fill="black"/>
<rect x="4.22919" y="19.4093" width="1.64796" height="4.21146" transform="rotate(90 4.22919 19.4093)" fill="black"/>
<rect x="4.23804" y="24.5363" width="1.64796" height="4.21146" transform="rotate(90 4.23804 24.5363)" fill="black"/>
</svg>
