<svg width="27" height="28" viewBox="0 0 27 28" fill="none" xmlns="http://www.w3.org/2000/svg">
<path d="M10.3845 17.4462C10.3845 15.7893 11.7277 14.4462 13.3845 14.4462H13.6153C15.2721 14.4462 16.6153 15.7893 16.6153 17.4462V24.8C16.6153 26.4569 15.2721 27.8 13.6153 27.8H13.3845C11.7277 27.8 10.3845 26.4569 10.3845 24.8V17.4462Z" fill="black"/>
<path d="M20.7692 9.81537C20.7692 8.15851 22.1123 6.81537 23.7692 6.81537H23.9999C25.6568 6.81537 26.9999 8.15851 26.9999 9.81537V24.8C26.9999 26.4568 25.6568 27.8 23.9999 27.8H23.7692C22.1123 27.8 20.7692 26.4568 20.7692 24.8V9.81537Z" fill="black"/>
<path d="M20.7692 9.81537C20.7692 8.15851 22.1123 6.81537 23.7692 6.81537H23.9999C25.6568 6.81537 26.9999 8.15851 26.9999 9.81537V24.8C26.9999 26.4568 25.6568 27.8 23.9999 27.8H23.7692C22.1123 27.8 20.7692 26.4568 20.7692 24.8V9.81537Z" fill="black"/>
<path d="M20.7692 9.81537C20.7692 8.15851 22.1123 6.81537 23.7692 6.81537H23.9999C25.6568 6.81537 26.9999 8.15851 26.9999 9.81537V24.8C26.9999 26.4568 25.6568 27.8 23.9999 27.8H23.7692C22.1123 27.8 20.7692 26.4568 20.7692 24.8V9.81537Z" fill="black"/>
<path d="M20.7692 9.81537C20.7692 8.15851 22.1123 6.81537 23.7692 6.81537H23.9999C25.6568 6.81537 26.9999 8.15851 26.9999 9.81537V24.8C26.9999 26.4568 25.6568 27.8 23.9999 27.8H23.7692C22.1123 27.8 20.7692 26.4568 20.7692 24.8V9.81537Z" fill="black"/>
<path d="M0 14.9025C0 13.2457 1.34315 11.9025 3 11.9025H3.23077C4.88762 11.9025 6.23077 13.2457 6.23077 14.9025V24.8C6.23077 26.4568 4.88762 27.8 3.23077 27.8H3C1.34314 27.8 0 26.4568 0 24.8V14.9025Z" fill="black"/>
<path d="M0 14.9025C0 13.2457 1.34315 11.9025 3 11.9025H3.23077C4.88762 11.9025 6.23077 13.2457 6.23077 14.9025V24.8C6.23077 26.4568 4.88762 27.8 3.23077 27.8H3C1.34314 27.8 0 26.4568 0 24.8V14.9025Z" fill="black"/>
<path d="M0 14.9025C0 13.2457 1.34315 11.9025 3 11.9025H3.23077C4.88762 11.9025 6.23077 13.2457 6.23077 14.9025V24.8C6.23077 26.4568 4.88762 27.8 3.23077 27.8H3C1.34314 27.8 0 26.4568 0 24.8V14.9025Z" fill="black"/>
<path d="M0 14.9025C0 13.2457 1.34315 11.9025 3 11.9025H3.23077C4.88762 11.9025 6.23077 13.2457 6.23077 14.9025V24.8C6.23077 26.4568 4.88762 27.8 3.23077 27.8H3C1.34314 27.8 0 26.4568 0 24.8V14.9025Z" fill="black"/>
<path d="M3.27866 7.49865C3.01824 7.4068 2.72079 7.53888 2.61428 7.79366C2.50778 8.04844 2.63255 8.32943 2.89297 8.42128L3.27866 7.49865ZM9.94678 10.3797C9.37875 11.7385 10.0442 13.2371 11.4331 13.727C12.822 14.2168 14.4084 13.5124 14.9765 12.1536C15.5445 10.7948 14.879 9.29614 13.4901 8.80629C12.1012 8.31645 10.5148 9.02089 9.94678 10.3797ZM2.89297 8.42128L12.2688 11.728L12.6545 10.8053L3.27866 7.49865L2.89297 8.42128Z" fill="#2D2D2D"/>
<path d="M12.1301 10.8922C11.9088 11.0573 11.8778 11.3589 12.0607 11.5657C12.2437 11.7725 12.5714 11.8063 12.7927 11.6412L12.1301 10.8922ZM21.4012 4.59493C22.377 5.69804 24.1249 5.87821 25.3052 4.99736C26.4855 4.1165 26.6513 2.50818 25.6755 1.40507C24.6997 0.301955 22.9518 0.121779 21.7715 1.00263C20.5912 1.88349 20.4254 3.49181 21.4012 4.59493ZM12.7927 11.6412L23.8696 3.3745L23.2071 2.62549L12.1301 10.8922L12.7927 11.6412Z" fill="#2D2D2D"/>
</svg>
