<svg width="40" height="40" viewBox="0 0 40 40" fill="none" xmlns="http://www.w3.org/2000/svg">
<path d="M39.9967 17.6147C38.6302 10.5466 36.6575 6.78547 25.7154 1.31936C18.8589 -0.324823 15.0259 -1.31586 7.03979 3.88268C2.22085 7.17024 0.811577 10.2898 0.0822104 17.6147C-0.418947 24.6191 1.37368 27.7424 5.39194 32.9946C10.9953 37.4782 14.6159 39.0524 22.2366 39.586C29.157 37.8003 32.0535 36.0216 35.7856 31.713C38.6838 28.7372 40.0768 26.6014 39.9967 17.6147Z" fill="#2AFDFD"/>
<ellipse cx="20.1404" cy="22.485" rx="2.92951" ry="2.74641" fill="#22CECE"/>
<rect x="15.3962" y="28.8933" width="1.83094" height="6.2252" transform="rotate(17.262 15.3962 28.8933)" fill="#22CECE"/>
<rect x="24.1685" y="29.2765" width="1.83094" height="6.2252" transform="rotate(-12.0785 24.1685 29.2765)" fill="#22CECE"/>
<rect x="29.295" y="25.0817" width="1.83094" height="6.2252" transform="rotate(-66.6666 29.295 25.0817)" fill="#22CECE"/>
<rect x="25.7007" y="5.49283" width="1.83094" height="6.2252" transform="rotate(26.8905 25.7007 5.49283)" fill="#22CECE"/>
<rect x="11.3565" y="7.27411" width="1.83094" height="6.2252" transform="rotate(-33.5626 11.3565 7.27411)" fill="#22CECE"/>
<path d="M4.02808 16.6251L4.82802 14.9782L10.4276 17.698L9.6277 19.3449L4.02808 16.6251Z" fill="#22CECE"/>
<rect x="5.07886" y="28.3889" width="1.83094" height="6.2252" transform="rotate(-100.16 5.07886 28.3889)" fill="#22CECE"/>
<rect x="30.5696" y="18.9367" width="1.83094" height="6.2252" transform="rotate(-107.226 30.5696 18.9367)" fill="#22CECE"/>
</svg>
