<svg width="117" height="148" viewBox="0 0 117 148" fill="none" xmlns="http://www.w3.org/2000/svg">
<path d="M58.5 73.5968C62.5219 73.5968 65.9648 72.1555 68.8289 69.273C71.693 66.3904 73.125 62.9252 73.125 58.8774C73.125 54.8296 71.693 51.3644 68.8289 48.4819C65.9648 45.5993 62.5219 44.1581 58.5 44.1581C54.4781 44.1581 51.0352 45.5993 48.1711 48.4819C45.307 51.3644 43.875 54.8296 43.875 58.8774C43.875 62.9252 45.307 66.3904 48.1711 69.273C51.0352 72.1555 54.4781 73.5968 58.5 73.5968ZM58.5 127.69C73.3688 113.952 84.3984 101.472 91.5891 90.248C98.7797 79.0245 102.375 69.0583 102.375 60.3493C102.375 46.9793 98.1398 36.0318 89.6695 27.5068C81.1992 18.9818 70.8094 14.7194 58.5 14.7194C46.1906 14.7194 35.8008 18.9818 27.3305 27.5068C18.8602 36.0318 14.625 46.9793 14.625 60.3493C14.625 69.0583 18.2203 79.0245 25.4109 90.248C32.6016 101.472 43.6312 113.952 58.5 127.69ZM58.5 147.194C38.8781 130.389 24.2227 114.78 14.5336 100.368C4.84453 85.9549 0 72.6155 0 60.3493C0 41.9502 5.88047 27.2921 17.6414 16.3753C29.4023 5.45843 43.0219 0 58.5 0C73.9781 0 87.5977 5.45843 99.3586 16.3753C111.12 27.2921 117 41.9502 117 60.3493C117 72.6155 112.155 85.9549 102.466 100.368C92.7773 114.78 78.1219 130.389 58.5 147.194Z" fill="white"/>
</svg>
