<svg width="35" height="35" viewBox="0 0 35 35" fill="none" xmlns="http://www.w3.org/2000/svg">
<rect width="35" height="34.2857" rx="5" fill="#2D2D2D"/>
<path d="M13.303 25.3963C13.3283 25.4723 13.341 25.561 13.341 25.6623C13.3537 25.7636 13.36 25.8586 13.36 25.9473C13.36 26.1753 13.3347 26.3906 13.284 26.5933C13.2333 26.796 13.151 26.9733 13.037 27.1253C12.923 27.2773 12.771 27.404 12.581 27.5053C12.4037 27.594 12.1757 27.6383 11.897 27.6383C11.631 27.6383 11.365 27.5813 11.099 27.4673C10.8457 27.3533 10.529 27.1886 10.149 26.9733L6.064 24.6173C5.73467 24.1866 5.57 23.6166 5.57 22.9073C5.57 22.3753 5.646 21.9636 5.798 21.6723C5.95 21.381 6.17167 21.153 6.463 20.9883L11.688 17.9483C12.3087 18.113 12.7267 18.341 12.942 18.6323C13.17 18.911 13.284 19.215 13.284 19.5443C13.284 19.9876 13.17 20.336 12.942 20.5893C12.7267 20.83 12.4037 21.058 11.973 21.2733L8.629 22.9643L13.303 25.3963ZM16.6224 29.7283C16.445 29.7536 16.274 29.7663 16.1094 29.7663C15.9447 29.779 15.7927 29.7853 15.6534 29.7853C15.1214 29.7853 14.7097 29.6713 14.4184 29.4433C14.1397 29.2153 14.0004 28.848 14.0004 28.3413C14.0004 27.9993 14.051 27.6573 14.1524 27.3153C14.2537 26.9606 14.3424 26.6503 14.4184 26.3843L17.7624 14.3193C17.9524 14.294 18.1297 14.2813 18.2944 14.2813C18.459 14.2686 18.611 14.2623 18.7504 14.2623C19.257 14.2623 19.656 14.37 19.9474 14.5853C20.2514 14.8006 20.4034 15.149 20.4034 15.6303C20.4034 15.9976 20.3527 16.346 20.2514 16.6753C20.15 17.0046 20.055 17.334 19.9664 17.6633L16.6224 29.7283ZM21.1021 20.1903C21.0767 20.1143 21.0577 20.0256 21.0451 19.9243C21.0451 19.823 21.0451 19.728 21.0451 19.6393C21.0451 19.4113 21.0704 19.196 21.1211 18.9933C21.1717 18.7906 21.2541 18.6133 21.3681 18.4613C21.4821 18.3093 21.6277 18.189 21.8051 18.1003C21.9951 17.999 22.2294 17.9483 22.5081 17.9483C22.7741 17.9483 23.0337 18.0053 23.2871 18.1193C23.5531 18.2333 23.8761 18.398 24.2561 18.6133L28.3411 20.9693C28.6704 21.4 28.8351 21.97 28.8351 22.6793C28.8351 23.2113 28.7591 23.623 28.6071 23.9143C28.4551 24.2056 28.2334 24.4336 27.9421 24.5983L22.7171 27.6383C22.0964 27.4736 21.6721 27.252 21.4441 26.9733C21.2287 26.682 21.1211 26.3716 21.1211 26.0423C21.1211 25.599 21.2287 25.257 21.4441 25.0163C21.6721 24.763 22.0014 24.5286 22.4321 24.3133L25.7761 22.6223L21.1021 20.1903Z" fill="white"/>
<line y1="8.5" x2="35" y2="8.5" stroke="white" stroke-width="3"/>
<circle cx="4.64283" cy="3.9286" r="1.78571" fill="white"/>
<circle cx="10.3571" cy="3.9286" r="1.78571" fill="white"/>
<circle cx="16.0714" cy="3.9286" r="1.78571" fill="white"/>
</svg>
