<svg width="35" height="25" viewBox="0 0 35 25" fill="none" xmlns="http://www.w3.org/2000/svg">
<rect y="8.93616" width="22.766" height="7.02128" rx="3.51064" fill="black"/>
<rect x="2.55319" y="11.7021" width="7.23404" height="1.70213" rx="0.851064" fill="white"/>
<rect x="15.7447" y="11.7021" width="1.70213" height="1.70213" rx="0.851064" fill="white"/>
<rect x="18.5106" y="11.7021" width="1.70213" height="1.70213" rx="0.851064" fill="white"/>
<rect y="17.8723" width="22.766" height="7.02128" rx="3.51064" fill="black"/>
<rect x="2.55319" y="20.6383" width="7.23404" height="1.70213" rx="0.851064" fill="white"/>
<rect x="15.7447" y="20.6383" width="1.70213" height="1.70213" rx="0.851064" fill="white"/>
<rect x="18.5106" y="20.6383" width="1.70213" height="1.70213" rx="0.851064" fill="white"/>
<rect width="22.766" height="7.02128" rx="3.51064" fill="black"/>
<rect x="2.55319" y="2.76593" width="7.23404" height="1.70213" rx="0.851064" fill="white"/>
<rect x="15.7447" y="2.76593" width="1.70213" height="1.70213" rx="0.851064" fill="white"/>
<rect x="18.5106" y="2.76593" width="1.70213" height="1.70213" rx="0.851064" fill="white"/>
<path d="M25.5319 2.76593C23.7645 2.76593 22.0368 3.29003 20.5672 4.27195C19.0977 5.25387 17.9523 6.6495 17.276 8.28238C16.5996 9.91525 16.4227 11.712 16.7675 13.4455C17.1123 15.1789 17.9633 16.7712 19.2131 18.0209C20.4628 19.2707 22.0551 20.1218 23.7886 20.4666C25.522 20.8114 27.3188 20.6344 28.9516 19.958C30.5845 19.2817 31.9802 18.1363 32.9621 16.6668C33.944 15.1972 34.4681 13.4695 34.4681 11.7021H25.5319V2.76593Z" fill="#342B2B"/>
<path d="M26.0638 2.38239C27.2373 2.38239 28.3994 2.61353 29.4836 3.06261C30.5677 3.5117 31.5529 4.16993 32.3827 4.99973C33.2125 5.82953 33.8707 6.81465 34.3198 7.89883C34.7689 8.98302 35 10.145 35 11.3186L26.0638 11.3186V2.38239Z" fill="black"/>
</svg>
