<svg width="87" height="87" viewBox="0 0 87 87" fill="none" xmlns="http://www.w3.org/2000/svg">
<path d="M43.702 86.366C37.602 86.366 31.9493 85.268 26.744 83.072C21.5387 80.876 16.984 77.826 13.08 73.922C9.176 69.9367 6.126 65.3413 3.93 60.136C1.81533 54.9307 0.758 49.3187 0.758 43.3C0.758 37.2813 1.856 31.6693 4.052 26.464C6.248 21.2587 9.298 16.704 13.202 12.8C17.106 8.81466 21.6607 5.72399 26.866 3.52799C32.1527 1.332 37.846 0.233999 43.946 0.233999C50.046 0.233999 55.6987 1.332 60.904 3.52799C66.1907 5.64266 70.7453 8.65199 74.568 12.556C78.472 16.46 81.4813 21.0147 83.596 26.22C85.792 31.344 86.89 36.956 86.89 43.056C86.89 49.156 85.792 54.8493 83.596 60.136C81.4 65.3413 78.3093 69.9367 74.324 73.922C70.42 77.826 65.8653 80.876 60.66 83.072C55.4547 85.268 49.802 86.366 43.702 86.366ZM43.702 78.436C48.6633 78.436 53.2587 77.5413 57.488 75.752C61.7173 73.8813 65.418 71.36 68.59 68.188C71.762 65.016 74.202 61.2747 75.91 56.964C77.6993 52.6533 78.594 48.0173 78.594 43.056C78.594 38.0947 77.6993 33.4993 75.91 29.27C74.202 24.9593 71.8027 21.2587 68.712 18.168C65.7027 14.996 62.0833 12.556 57.854 10.848C53.6247 9.05866 48.9887 8.164 43.946 8.164C38.9847 8.164 34.3487 9.05866 30.038 10.848C25.8087 12.6373 22.108 15.1587 18.936 18.412C15.8453 21.584 13.446 25.2847 11.738 29.514C10.03 33.7433 9.176 38.3387 9.176 43.3C9.176 48.2613 10.03 52.8973 11.738 57.208C13.446 61.4373 15.8453 65.138 18.936 68.31C22.0267 71.482 25.6867 73.9627 29.916 75.752C34.1453 77.5413 38.7407 78.436 43.702 78.436ZM45.288 67.944C40.2453 67.944 35.772 66.9273 31.868 64.894C27.964 62.7793 24.8733 59.8513 22.596 56.11C20.4 52.3687 19.302 48.0987 19.302 43.3C19.302 38.5013 20.4 34.2313 22.596 30.49C24.8733 26.7487 27.964 23.8613 31.868 21.828C35.772 19.7133 40.2453 18.656 45.288 18.656C50.168 18.656 54.438 19.7133 58.098 21.828C61.758 23.8613 64.442 26.6673 66.15 30.246L55.17 36.712C53.95 34.6787 52.486 33.2147 50.778 32.32C49.1513 31.4253 47.2807 30.978 45.166 30.978C43.0513 30.978 41.0993 31.466 39.31 32.442C37.602 33.418 36.2193 34.8413 35.162 36.712C34.1047 38.5827 33.576 40.7787 33.576 43.3C33.576 45.8213 34.1047 48.0173 35.162 49.888C36.2193 51.7587 37.602 53.182 39.31 54.158C41.0993 55.134 43.0513 55.622 45.166 55.622C47.2807 55.622 49.1513 55.1747 50.778 54.28C52.486 53.3853 53.95 51.9213 55.17 49.888L66.15 56.232C64.442 59.8107 61.758 62.6573 58.098 64.772C54.438 66.8867 50.168 67.944 45.288 67.944Z" fill="white"/>
</svg>
