<svg width="74" height="62" viewBox="0 0 74 62" fill="none" xmlns="http://www.w3.org/2000/svg">
<path d="M2.60752 46.2689C-3.39251 36.2689 1.10766 9.76888 14.6075 2.26886C28.1074 -5.23116 67.1076 7.26885 72.6075 19.2689C78.1074 31.2689 55.6075 59.7689 40.6075 61.2689C25.6075 62.7689 8.60756 56.2689 2.60752 46.2689Z" fill="#E42D33" fill-opacity="0.5"/>
<path d="M38.786 29.2137H35.2136V32.7861H38.786V29.2137Z" fill="#E42D33"/>
<path d="M36.0217 27.2573V17.2349C35.0909 16.4642 33.8978 16 32.5976 16C29.6307 16 27.2171 18.4137 27.2171 21.3805C27.2171 21.5443 27.2256 21.7066 27.2403 21.8676C26.1646 22.1494 25.1852 22.7301 24.4118 23.5579C23.3818 24.6606 22.8147 26.0992 22.8147 27.6087C22.8147 28.8676 23.2091 30.036 23.8802 30.9975C23.1886 31.9875 22.8147 33.1656 22.8147 34.3912C22.8147 37.1422 24.6961 39.4618 27.2398 40.1315C27.2252 40.2933 27.217 40.4559 27.217 40.6194C27.217 43.5863 29.6307 45.9999 32.5975 45.9999C33.8977 45.9999 35.0908 45.5358 36.0216 44.765V36.1028L36.0216 34.7428H35.2136V36.1028H33.2571V34.7428H31.8971V32.7863H33.2571V31.9783H31.8971V30.0218H33.2571V29.2138H31.8971V27.2573H33.2571V25.8973H35.2136V27.2573H36.0217V27.2573Z" fill="#E42D33"/>
<path d="M51.1852 27.6087C51.1852 26.0992 50.6181 24.6607 49.5882 23.5581C48.8149 22.7302 47.8353 22.1495 46.7596 21.8678C46.7744 21.7067 46.7829 21.5443 46.7829 21.3807C46.7829 18.4137 44.3692 16 41.4023 16C40.1022 16 38.909 16.4642 37.9783 17.2349V27.2573H38.7862V25.8972H40.7427V27.2573H42.1027V29.2138H40.7427V30.0218H42.1027V31.9783H40.7427V32.7862H42.1027V34.7427H40.7427V36.1028H38.7862V34.7427H37.9783V44.7651C38.909 45.5358 40.1022 46 41.4023 46C44.3692 46 46.7829 43.5863 46.7829 40.6195C46.7829 40.4561 46.7747 40.2934 46.76 40.1315C49.3037 39.4619 51.1851 37.1423 51.1851 34.3913C51.1851 33.1656 50.8112 31.9875 50.1196 30.9976C50.7909 30.0361 51.1852 28.8677 51.1852 27.6087Z" fill="#E42D33"/>
</svg>
