<svg width="74" height="62" viewBox="0 0 74 62" fill="none" xmlns="http://www.w3.org/2000/svg">
<path d="M2.60752 46.2689C-3.39251 36.2689 1.10766 9.76888 14.6075 2.26886C28.1074 -5.23116 67.1076 7.26885 72.6075 19.2689C78.1074 31.2689 55.6075 59.7689 40.6075 61.2689C25.6075 62.7689 8.60756 56.2689 2.60752 46.2689Z" fill="#E42D33" fill-opacity="0.5"/>
<path d="M46.6117 21.3883C40.76 15.5372 31.2399 15.5372 25.3883 21.3883C19.5372 27.2393 19.5372 36.7596 25.3883 42.611C28.3141 45.5365 32.1571 46.9994 36 46.9994C39.8429 46.9994 43.6859 45.5365 46.6117 42.611C52.4627 36.76 52.4627 27.2397 46.6117 21.3883ZM28.997 39.5119H28.1685C27.6281 39.5119 27.1896 39.0737 27.1896 38.533C27.1896 37.9922 27.6281 37.5541 28.1685 37.5541H28.997C30.3603 37.5541 31.5342 36.6247 31.8523 35.2991L34.3277 24.9891C34.8579 22.7798 36.8151 21.2386 39.0872 21.2386H39.9157C40.4561 21.2386 40.8946 21.6768 40.8946 22.2175C40.8946 22.7583 40.4561 23.1965 39.9157 23.1965H39.0872C37.724 23.1965 36.55 24.1186 36.232 25.4442L33.7566 35.7579C33.2263 37.9671 31.2691 39.5119 28.997 39.5119ZM41.2604 37.8337C41.6428 38.2157 41.6428 38.8358 41.2604 39.2179C41.0692 39.4091 40.8187 39.5047 40.5683 39.5047C40.3178 39.5047 40.0673 39.4091 39.8762 39.2179L38.6104 37.9522L37.3447 39.2179C37.1535 39.4091 36.903 39.5047 36.6526 39.5047C36.4022 39.5047 36.1516 39.4091 35.9605 39.2179C35.5781 38.8359 35.5781 38.2157 35.9605 37.8337L37.2262 36.5679L35.9605 35.3022C35.5781 34.9202 35.5781 34.3 35.9605 33.9179C36.3429 33.5355 36.9624 33.5355 37.3448 33.9179L38.6105 35.1837L39.8762 33.9179C40.2586 33.5355 40.8781 33.5355 41.2605 33.9179C41.6429 34.2999 41.6429 34.9201 41.2605 35.3022L39.9948 36.5679L41.2604 37.8337Z" fill="#E42D33"/>
</svg>
