<svg width="74" height="62" viewBox="0 0 74 62" fill="none" xmlns="http://www.w3.org/2000/svg">
<path d="M2.60752 46.2689C-3.39251 36.2689 1.10766 9.76888 14.6075 2.26886C28.1074 -5.23116 67.1076 7.26885 72.6075 19.2689C78.1074 31.2689 55.6075 59.7689 40.6075 61.2689C25.6075 62.7689 8.60756 56.2689 2.60752 46.2689Z" fill="#E42D33" fill-opacity="0.5"/>
<path opacity="0.4" d="M49 26V38.285C49 43.745 45.745 47 40.285 47H27.715C22.255 47 19 43.745 19 38.285V26.015L49 26Z" fill="#E42D33"/>
<path d="M29.5014 40.6249C29.3364 40.6249 29.1564 40.5799 29.0064 40.5049C27.8514 39.9199 26.8614 39.0499 26.1414 37.9699C25.5414 37.0699 25.5414 35.9149 26.1414 35.0149C26.8614 33.9349 27.8514 33.0649 29.0064 32.4949C29.5614 32.2099 30.2364 32.4499 30.5214 33.0049C30.8064 33.5599 30.5814 34.2349 30.0114 34.5199C29.2014 34.9249 28.5114 35.5399 28.0164 36.2899C27.9264 36.4249 27.9264 36.6049 28.0164 36.7549C28.5114 37.5049 29.2014 38.1199 30.0114 38.5249C30.5664 38.8099 30.7914 39.4849 30.5214 40.0399C30.3114 40.3999 29.9064 40.6249 29.5014 40.6249Z" fill="#E42D33"/>
<path d="M38.8139 40.6249C38.3939 40.6249 38.0039 40.3999 37.8089 40.0099C37.5239 39.4549 37.7489 38.7799 38.3189 38.4949C39.1289 38.0899 39.8189 37.4749 40.3139 36.7249C40.4039 36.5899 40.4039 36.4099 40.3139 36.2599C39.8189 35.5099 39.1289 34.8949 38.3189 34.4899C37.7639 34.2049 37.5389 33.5299 37.8089 32.9749C38.0939 32.4199 38.7689 32.1949 39.3239 32.4649C40.4789 33.0499 41.4689 33.9199 42.1889 34.9999C42.7889 35.8999 42.7889 37.0549 42.1889 37.9549C41.4689 39.0349 40.4789 39.9049 39.3239 40.4749C39.1439 40.5799 38.9789 40.6249 38.8139 40.6249Z" fill="#E42D33"/>
<path d="M49 25.715V26L19 26.015V25.715C19 20.255 22.255 17 27.715 17H40.285C45.745 17 49 20.255 49 25.715Z" fill="#E42D33"/>
</svg>
