<svg width="74" height="62" viewBox="0 0 74 62" fill="none" xmlns="http://www.w3.org/2000/svg">
<path d="M2.60752 46.2689C-3.39251 36.2689 1.10766 9.76888 14.6075 2.26886C28.1074 -5.23116 67.1076 7.26885 72.6075 19.2689C78.1074 31.2689 55.6075 59.7689 40.6075 61.2689C25.6075 62.7689 8.60756 56.2689 2.60752 46.2689Z" fill="#E42D33" fill-opacity="0.5"/>
<path d="M23.5751 25.9719C23.4079 25.6218 23.3535 25.2284 23.4193 24.846C23.4851 24.4636 23.668 24.111 23.9426 23.8369L25.7101 22.0694C25.9842 21.7952 26.3366 21.6128 26.7188 21.5472C27.1009 21.4816 27.494 21.5361 27.8438 21.7032L29.6876 19.8594C30.1564 19.3907 30.7922 19.1274 31.4551 19.1274C32.118 19.1274 32.7538 19.3907 33.2226 19.8594L36.7588 23.3957C37.2275 23.8645 37.4908 24.5002 37.4908 25.1632C37.4908 25.8261 37.2275 26.4618 36.7588 26.9307L34.9901 28.6982L34.9276 28.6357L30.5088 33.0557L30.5713 33.1182L28.8038 34.8857C28.5717 35.1179 28.296 35.3021 27.9927 35.4278C27.6893 35.5535 27.3641 35.6182 27.0357 35.6182C26.7073 35.6182 26.3822 35.5535 26.0788 35.4278C25.7754 35.3021 25.4998 35.1179 25.2676 34.8857L21.7326 31.3507C21.5003 31.1185 21.3161 30.8429 21.1904 30.5395C21.0647 30.2361 21 29.9109 21 29.5825C21 29.2541 21.0647 28.929 21.1904 28.6256C21.3161 28.3222 21.5003 28.0466 21.7326 27.8144L23.5751 25.9719ZM32.2751 34.8219L36.6951 30.4032L41.1776 34.8857L36.7588 39.3057L32.2763 34.8232L32.2751 34.8219ZM38.5251 41.0719L42.9451 36.6532L45.1551 38.8632C45.737 39.45 46.0627 40.2435 46.061 41.0699C46.0593 41.8963 45.7304 42.6884 45.1461 43.2729C44.5618 43.8573 43.7698 44.1866 42.9433 44.1885C42.1169 44.1904 41.3234 43.8649 40.7363 43.2832L38.5263 41.0732L38.5251 41.0719ZM42.0626 21.6269L47.3651 26.9307L42.5663 31.7294C41.8001 32.4957 40.3863 32.3269 39.4101 31.3507L37.6426 29.5819C36.6663 28.6069 36.4963 27.1932 37.2638 26.4257L42.0626 21.6269ZM43.8288 19.8594L44.2076 19.4807C44.9738 18.7132 46.3876 18.8832 47.3638 19.8594L49.1313 21.6269C50.1076 22.6032 50.2776 24.0169 49.5101 24.7844L49.1313 25.1632L43.8288 19.8594ZM27.9201 39.3057L30.5701 36.6532C30.6861 36.537 30.8239 36.4449 30.9756 36.382C31.1273 36.3191 31.2898 36.2867 31.454 36.2867C31.6182 36.2866 31.7808 36.3189 31.9325 36.3817C32.0842 36.4444 32.2221 36.5365 32.3382 36.6525C32.4544 36.7686 32.5465 36.9064 32.6094 37.058C32.6723 37.2097 32.7047 37.3723 32.7047 37.5365C32.7048 37.7006 32.6725 37.8632 32.6097 38.0149C32.5469 38.1667 32.4549 38.3045 32.3388 38.4207L29.6876 41.0744C29.9219 41.3088 30.0536 41.6267 30.0536 41.9582C30.0536 42.2896 29.9219 42.6075 29.6876 42.8419L27.9201 44.6094C27.804 44.7256 27.6661 44.8178 27.5144 44.8807C27.3626 44.9436 27.2 44.976 27.0357 44.976C26.8714 44.976 26.7088 44.9436 26.557 44.8807C26.4053 44.8178 26.2674 44.7256 26.1513 44.6094L24.3838 42.8419C24.1495 42.6075 24.0179 42.2896 24.0179 41.9582C24.0179 41.6267 24.1495 41.3088 24.3838 41.0744L26.1513 39.3069C26.2674 39.1907 26.4053 39.0985 26.557 39.0356C26.7088 38.9727 26.8714 38.9403 27.0357 38.9403C27.2 38.9403 27.3626 38.9727 27.5144 39.0356C27.6661 39.0985 27.804 39.1907 27.9201 39.3069V39.3057Z" fill="#E42D33"/>
</svg>
