<svg width="72" height="62" viewBox="0 0 72 62" fill="none" xmlns="http://www.w3.org/2000/svg">
<rect width="72" height="62" rx="15" fill="#E42D33" fill-opacity="0.47"/>
<path d="M29.6875 35.8375L33.4937 32.0312H38.5687C40.6672 32.0312 42.375 30.3235 42.375 28.225V16.8062C42.375 14.7077 40.6672 13 38.5687 13H20.8062C18.7077 13 17 14.7077 17 16.8062V28.225C17 30.3235 18.7077 32.0312 20.8062 32.0312H25.8812L29.6875 35.8375ZM25.2469 19.3437H34.1281C34.4783 19.3437 34.7625 19.6279 34.7625 19.9781C34.7625 20.3283 34.4783 20.6125 34.1281 20.6125H25.2469C24.8967 20.6125 24.6125 20.3283 24.6125 19.9781C24.6125 19.6279 24.8967 19.3437 25.2469 19.3437ZM25.2469 21.8812H34.1281C34.4783 21.8812 34.7625 22.1654 34.7625 22.5156C34.7625 22.8658 34.4783 23.15 34.1281 23.15H25.2469C24.8967 23.15 24.6125 22.8658 24.6125 22.5156C24.6125 22.1654 24.8967 21.8812 25.2469 21.8812ZM25.2469 25.6875C24.8967 25.6875 24.6125 25.4033 24.6125 25.0531C24.6125 24.7029 24.8967 24.4187 25.2469 24.4187H34.1281C34.4783 24.4187 34.7625 24.7029 34.7625 25.0531C34.7625 25.4033 34.4783 25.6875 34.1281 25.6875H25.2469ZM48.7187 25.6875H43.6437V28.225C43.6437 31.0238 41.3676 33.3 38.5687 33.3H34.019L30.5845 36.7345C30.3371 36.9819 30.0123 37.1062 29.6875 37.1062C29.3627 37.1062 29.0379 36.9819 28.7905 36.7345L27.15 35.094V40.9125C27.15 43.0148 28.8539 44.7187 30.9562 44.7187H36.0312L38.9405 47.6279C39.4365 48.124 40.2397 48.124 40.7345 47.6279L43.6437 44.7187H48.7187C50.821 44.7187 52.5249 43.0148 52.5249 40.9125V29.4937C52.5249 27.3914 50.821 25.6875 48.7187 25.6875ZM44.2781 38.375H35.3968C35.0467 38.375 34.7625 38.0908 34.7625 37.7406C34.7625 37.3904 35.0467 37.1062 35.3968 37.1062H44.2781C44.6283 37.1062 44.9125 37.3904 44.9125 37.7406C44.9125 38.0908 44.6283 38.375 44.2781 38.375ZM44.2781 35.8375H35.3968C35.0467 35.8375 34.7625 35.5533 34.7625 35.2031C34.7625 34.8529 35.0467 34.5687 35.3968 34.5687H44.2781C44.6283 34.5687 44.9125 34.8529 44.9125 35.2031C44.9125 35.5533 44.6283 35.8375 44.2781 35.8375Z" fill="#E42D33"/>
</svg>
