<svg width="72" height="62" viewBox="0 0 72 62" fill="none" xmlns="http://www.w3.org/2000/svg">
<rect width="72" height="62" rx="15" fill="#E42D33" fill-opacity="0.47"/>
<path fill-rule="evenodd" clip-rule="evenodd" d="M52.1579 28.1087C50.19 28.8057 48.065 28.9312 46.0287 28.4705C43.9925 28.0099 42.1284 26.9819 40.6522 25.5057C39.176 24.0295 38.148 22.1654 37.6874 20.1292C37.2267 18.0929 37.3522 15.9679 38.0492 14H24.5263C23.0606 14 21.655 14.5822 20.6186 15.6186C19.5822 16.655 19 18.0606 19 19.5263V41.6316C19 43.0972 19.5822 44.5029 20.6186 45.5393C21.655 46.5757 23.0606 47.1579 24.5263 47.1579H46.6316C48.0972 47.1579 49.5029 46.5757 50.5393 45.5393C51.5757 44.5029 52.1579 43.0972 52.1579 41.6316V28.1087ZM35.5789 21.3684C36.0675 21.3684 36.5361 21.5625 36.8815 21.908C37.227 22.2534 37.4211 22.722 37.4211 23.2105V37.9474C37.4211 38.4359 37.227 38.9045 36.8815 39.2499C36.5361 39.5954 36.0675 39.7895 35.5789 39.7895C35.0904 39.7895 34.6218 39.5954 34.2764 39.2499C33.9309 38.9045 33.7368 38.4359 33.7368 37.9474V23.2105C33.7368 22.722 33.9309 22.2534 34.2764 21.908C34.6218 21.5625 35.0904 21.3684 35.5789 21.3684ZM28.2105 26.8947C28.6991 26.8947 29.1676 27.0888 29.5131 27.4343C29.8586 27.7797 30.0526 28.2483 30.0526 28.7368V37.9474C30.0526 38.4359 29.8586 38.9045 29.5131 39.2499C29.1676 39.5954 28.6991 39.7895 28.2105 39.7895C27.722 39.7895 27.2534 39.5954 26.908 39.2499C26.5625 38.9045 26.3684 38.4359 26.3684 37.9474V28.7368C26.3684 28.2483 26.5625 27.7797 26.908 27.4343C27.2534 27.0888 27.722 26.8947 28.2105 26.8947ZM42.9474 32.4211C43.4359 32.4211 43.9045 32.6151 44.2499 32.9606C44.5954 33.3061 44.7895 33.7746 44.7895 34.2632V37.9474C44.7895 38.4359 44.5954 38.9045 44.2499 39.2499C43.9045 39.5954 43.4359 39.7895 42.9474 39.7895C42.4588 39.7895 41.9903 39.5954 41.6448 39.2499C41.2993 38.9045 41.1053 38.4359 41.1053 37.9474V34.2632C41.1053 33.7746 41.2993 33.3061 41.6448 32.9606C41.9903 32.6151 42.4588 32.4211 42.9474 32.4211Z" fill="#E42D33"/>
<path d="M46.5 25L46.5 14" stroke="#E42D33" stroke-width="3" stroke-linecap="round"/>
<path d="M41 19.5L52 19.5" stroke="#E42D33" stroke-width="3" stroke-linecap="round"/>
</svg>
