<svg width="72" height="62" viewBox="0 0 72 62" fill="none" xmlns="http://www.w3.org/2000/svg">
<rect width="72" height="62" rx="15" fill="#E42D33" fill-opacity="0.47"/>
<path d="M27.6462 14C28.3739 14 28.9639 14.5673 28.9639 15.2672V17.8234C30.1327 17.8016 31.4428 17.8016 32.9169 17.8016H39.9445C41.4184 17.8016 42.7286 17.8016 43.8974 17.8234V15.2672C43.8974 14.5673 44.4873 14 45.2151 14C45.9427 14 46.5328 14.5673 46.5328 15.2672V17.9355C49.0615 18.1302 50.7217 18.6082 51.9412 19.7811C53.1609 20.954 53.6579 22.5505 53.8604 24.9824L53.9998 26.2496H20.6189H19.001V24.9824C19.2035 22.5505 19.7004 20.954 20.9201 19.7811C22.1397 18.6082 23.7998 18.1302 26.3285 17.9355V15.2672C26.3285 14.5673 26.9185 14 27.6462 14Z" fill="#E42D33"/>
<path opacity="0.5" d="M53.9995 34.9993V31.4994C53.9995 30.031 53.9939 27.4136 53.9713 26.2494H19.0175C18.9949 27.4136 19.0006 30.031 19.0006 31.4994V34.9993C19.0006 41.5987 19.0006 44.8984 21.0508 46.9486C23.101 48.9988 26.4007 48.9988 33.0002 48.9988H39.9999C46.5995 48.9988 49.8992 48.9988 51.9494 46.9486C53.9995 44.8984 53.9995 41.5987 53.9995 34.9993Z" fill="#E42D33"/>
<path d="M46.9996 40.2488C46.9996 41.2153 46.2162 41.9988 45.2497 41.9988C44.2832 41.9988 43.4998 41.2153 43.4998 40.2488C43.4998 39.2824 44.2832 38.4989 45.2497 38.4989C46.2162 38.4989 46.9996 39.2824 46.9996 40.2488Z" fill="#E42D33"/>
<path d="M46.9996 33.2497C46.9996 34.2162 46.2162 34.9996 45.2497 34.9996C44.2832 34.9996 43.4998 34.2162 43.4998 33.2497C43.4998 32.2832 44.2832 31.4998 45.2497 31.4998C46.2162 31.4998 46.9996 32.2832 46.9996 33.2497Z" fill="#E42D33"/>
<path d="M38.2496 40.2488C38.2496 41.2153 37.4662 41.9988 36.4997 41.9988C35.5332 41.9988 34.7498 41.2153 34.7498 40.2488C34.7498 39.2824 35.5332 38.4989 36.4997 38.4989C37.4662 38.4989 38.2496 39.2824 38.2496 40.2488Z" fill="#E42D33"/>
<path d="M38.2496 33.2497C38.2496 34.2162 37.4662 34.9996 36.4997 34.9996C35.5332 34.9996 34.7498 34.2162 34.7498 33.2497C34.7498 32.2832 35.5332 31.4998 36.4997 31.4998C37.4662 31.4998 38.2496 32.2832 38.2496 33.2497Z" fill="#E42D33"/>
<path d="M29.4999 40.2488C29.4999 41.2153 28.7164 41.9988 27.7499 41.9988C26.7835 41.9988 26 41.2153 26 40.2488C26 39.2824 26.7835 38.4989 27.7499 38.4989C28.7164 38.4989 29.4999 39.2824 29.4999 40.2488Z" fill="#E42D33"/>
<path d="M29.4999 33.2497C29.4999 34.2162 28.7164 34.9996 27.7499 34.9996C26.7835 34.9996 26 34.2162 26 33.2497C26 32.2832 26.7835 31.4998 27.7499 31.4998C28.7164 31.4998 29.4999 32.2832 29.4999 33.2497Z" fill="#E42D33"/>
</svg>
