<svg width="72" height="62" viewBox="0 0 72 62" fill="none" xmlns="http://www.w3.org/2000/svg">
<rect width="72" height="62" rx="15" fill="#E42D33" fill-opacity="0.47"/>
<path fill-rule="evenodd" clip-rule="evenodd" d="M45.25 15C50.0825 15 54 18.9175 54 23.75V33.5938C54 38.4262 50.0825 42.3438 45.25 42.3438H29.2203C28.2749 42.3438 27.3548 42.65 26.598 43.2168L22.4987 46.2864C21.5316 47.0105 20.1606 46.8136 19.4365 45.8466C19.1531 45.4682 19 45.0081 19 44.5354V23.75C19 18.9175 22.9175 15 27.75 15H45.25ZM42.4369 26.043C41.8909 25.7845 41.2388 26.0174 40.9802 26.5634C40.2396 28.1273 38.4373 29.219 36.4962 29.219C34.5565 29.219 32.7633 28.1356 32.0181 26.5759C31.7577 26.0309 31.1048 25.8001 30.5597 26.0605C30.0147 26.3209 29.7839 26.9739 30.0443 27.5189C31.16 29.8541 33.7295 31.4065 36.4962 31.4065C39.2665 31.4065 41.8474 29.8433 42.9573 27.4996C43.2158 26.9537 42.9828 26.3015 42.4369 26.043Z" fill="#E42D33"/>
</svg>
