<svg width="555" height="557" viewBox="0 0 555 557" fill="none" xmlns="http://www.w3.org/2000/svg">
<g opacity="0.2">
<path d="M97.8787 459.121C99.7686 457.231 103 458.57 103 461.243V505.5V554C103 555.657 101.657 557 100 557H59.6235H7.24263C4.56992 557 3.23143 553.769 5.12132 551.879L97.8787 459.121Z" fill="#AEAEAE"/>
<path d="M210.879 459.121C212.769 457.231 216 458.57 216 461.243V505.5V554C216 555.657 214.657 557 213 557H172.623H120.243C117.57 557 116.231 553.769 118.121 551.879L210.879 459.121Z" fill="#AEAEAE"/>
<path d="M323.879 459.121C325.769 457.231 329 458.57 329 461.243V505.5V554C329 555.657 327.657 557 326 557H285.623H233.243C230.57 557 229.231 553.769 231.121 551.879L323.879 459.121Z" fill="#AEAEAE"/>
<path d="M436.879 459.121C438.769 457.231 442 458.57 442 461.243V505.5V554C442 555.657 440.657 557 439 557H398.623H346.243C343.57 557 342.231 553.769 344.121 551.879L436.879 459.121Z" fill="#AEAEAE"/>
<path d="M549.879 459.121C551.769 457.231 555 458.57 555 461.243V505.5V554C555 555.657 553.657 557 552 557H511.623H459.243C456.57 557 455.231 553.769 457.121 551.879L549.879 459.121Z" fill="#AEAEAE"/>
<path d="M210.879 345.121C212.769 343.231 216 344.57 216 347.243V391.5V440C216 441.657 214.657 443 213 443H172.623H120.243C117.57 443 116.231 439.769 118.121 437.879L210.879 345.121Z" fill="#AEAEAE"/>
<path d="M323.879 345.121C325.769 343.231 329 344.57 329 347.243V391.5V440C329 441.657 327.657 443 326 443H285.623H233.243C230.57 443 229.231 439.769 231.121 437.879L323.879 345.121Z" fill="#AEAEAE"/>
<path d="M436.879 345.121C438.769 343.231 442 344.57 442 347.243V391.5V440C442 441.657 440.657 443 439 443H398.623H346.243C343.57 443 342.231 439.769 344.121 437.879L436.879 345.121Z" fill="#AEAEAE"/>
<path d="M549.879 345.121C551.769 343.231 555 344.57 555 347.243V391.5V440C555 441.657 553.657 443 552 443H511.623H459.243C456.57 443 455.231 439.769 457.121 437.879L549.879 345.121Z" fill="#AEAEAE"/>
<path d="M323.879 231.121C325.769 229.231 329 230.57 329 233.243V277.5V326C329 327.657 327.657 329 326 329H285.623H233.243C230.57 329 229.231 325.769 231.121 323.879L323.879 231.121Z" fill="#AEAEAE"/>
<path d="M436.879 231.121C438.769 229.231 442 230.57 442 233.243V277.5V326C442 327.657 440.657 329 439 329H398.623H346.243C343.57 329 342.231 325.769 344.121 323.879L436.879 231.121Z" fill="#AEAEAE"/>
<path d="M549.879 231.121C551.769 229.231 555 230.57 555 233.243V277.5V326C555 327.657 553.657 329 552 329H511.623H459.243C456.57 329 455.231 325.769 457.121 323.879L549.879 231.121Z" fill="#AEAEAE"/>
<path d="M436.879 118.121C438.769 116.231 442 117.57 442 120.243V164.5V213C442 214.657 440.657 216 439 216H398.623H346.243C343.57 216 342.231 212.769 344.121 210.879L436.879 118.121Z" fill="#AEAEAE"/>
<path d="M549.879 118.121C551.769 116.231 555 117.57 555 120.243V164.5V213C555 214.657 553.657 216 552 216H511.623H459.243C456.57 216 455.231 212.769 457.121 210.879L549.879 118.121Z" fill="#AEAEAE"/>
<path d="M549.879 5.12132C551.769 3.23142 555 4.56993 555 7.24264V51.5V100C555 101.657 553.657 103 552 103H511.623H459.243C456.57 103 455.231 99.7686 457.121 97.8787L549.879 5.12132Z" fill="#AEAEAE"/>
</g>
</svg>
