<svg width="142" height="65" viewBox="0 0 142 65" fill="none" xmlns="http://www.w3.org/2000/svg">
<path d="M10.105 56.703C8.19367 56.703 6.627 56.4523 5.405 55.951C4.21433 55.481 3.337 54.776 2.773 53.836C2.209 52.896 1.927 51.7367 1.927 50.358C1.927 49.1673 2.24033 48.1333 2.867 47.256C3.525 46.3787 4.43367 45.6893 5.593 45.188L7.943 45.376C7.191 45.94 6.674 46.5353 6.392 47.162C6.11 47.7887 5.969 48.525 5.969 49.371C5.969 50.969 6.36067 52.1753 7.144 52.99C7.95867 53.8047 9.32167 54.212 11.233 54.212C13.301 54.212 14.9147 53.695 16.074 52.661C17.2647 51.627 17.86 50.4363 17.86 49.089C17.86 48.2743 17.6563 47.632 17.249 47.162C16.873 46.692 16.121 46.3473 14.993 46.128C13.8963 45.9087 12.267 45.799 10.105 45.799C8.695 45.799 7.53567 45.7207 6.627 45.564C5.74967 45.4387 5.04467 45.2193 4.512 44.906C4.01067 44.5613 3.65033 44.1383 3.431 43.637C3.243 43.1357 3.149 42.5247 3.149 41.804C3.149 40.77 3.44667 39.7673 4.042 38.796C4.66867 37.7933 5.46767 36.9003 6.439 36.117L8.178 37.339C7.55133 37.8717 7.097 38.373 6.815 38.843C6.56433 39.313 6.439 39.7203 6.439 40.065C6.439 40.629 6.58 41.052 6.862 41.334C7.17533 41.616 7.81767 41.804 8.789 41.898C9.76033 41.992 11.2487 42.039 13.254 42.039C15.3533 42.039 17.014 42.2113 18.236 42.556C19.4893 42.9007 20.3823 43.449 20.915 44.201C21.479 44.953 21.761 45.9713 21.761 47.256C21.761 48.3213 21.4633 49.4023 20.868 50.499C20.304 51.627 19.505 52.6453 18.471 53.554C17.437 54.494 16.1993 55.246 14.758 55.81C13.348 56.4053 11.797 56.703 10.105 56.703ZM11.233 38.467C9.76033 38.467 8.366 38.185 7.05 37.621C5.734 37.057 4.66867 36.211 3.854 35.083C3.07067 33.955 2.679 32.545 2.679 30.853C2.679 29.4117 2.99233 28.1113 3.619 26.952C4.24567 25.7613 5.18567 24.8213 6.439 24.132C7.72367 23.4113 9.29033 23.051 11.139 23.051C12.7057 23.051 14.0217 23.3173 15.087 23.85C16.1837 24.3513 17.0767 25.0093 17.766 25.824C18.4553 26.6073 18.9567 27.4377 19.27 28.315C19.5833 29.161 19.74 29.913 19.74 30.571C19.74 32.0123 19.411 33.344 18.753 34.566C18.1263 35.7567 17.1707 36.7123 15.886 37.433C14.6327 38.1223 13.0817 38.467 11.233 38.467ZM11.797 36.305C12.831 36.305 13.677 35.882 14.335 35.036C14.993 34.1587 15.322 32.9053 15.322 31.276C15.322 29.6153 14.9147 28.1897 14.1 26.999C13.2853 25.777 12.1417 25.166 10.669 25.166C9.41567 25.166 8.49133 25.6987 7.896 26.764C7.30067 27.798 7.003 28.9573 7.003 30.242C7.003 32.1847 7.426 33.6887 8.272 34.754C9.118 35.788 10.293 36.305 11.797 36.305ZM22.137 26.388C21.6357 26.2627 21.0247 26.1373 20.304 26.012C19.6147 25.8867 18.9253 25.777 18.236 25.683C17.578 25.589 17.014 25.5263 16.544 25.495L13.254 23.474H21.808C21.9333 23.8813 22.0117 24.3513 22.043 24.884C22.1057 25.3853 22.137 25.8867 22.137 26.388ZM47.3169 39.031C47.3169 40.6603 47.5362 41.757 47.9749 42.321C48.4449 42.8537 49.1499 43.12 50.0899 43.12C50.1839 43.402 50.2466 43.6997 50.2779 44.013C50.3092 44.3263 50.3249 44.7023 50.3249 45.141C49.6356 45.0783 48.8522 45.0313 47.9749 45C47.0976 45 46.1732 45 45.2019 45C44.5752 45 43.9172 45 43.2279 45C42.5386 45.0313 41.8806 45.047 41.2539 45.047C40.6586 45.0783 40.1102 45.1097 39.6089 45.141C39.6089 44.7023 39.6246 44.3263 39.6559 44.013C39.6872 43.6683 39.7499 43.3707 39.8439 43.12C40.9719 43.12 41.7866 42.838 42.2879 42.274C42.8206 41.6787 43.0869 40.5977 43.0869 39.031V31.887C43.0869 29.6623 42.6796 28.1583 41.8649 27.375C41.0502 26.5603 40.0005 26.153 38.7159 26.153C37.9012 26.153 37.0865 26.4193 36.2719 26.952C35.4572 27.4533 34.7679 28.2837 34.2039 29.443C33.6712 30.571 33.4049 32.0907 33.4049 34.002V39.031C33.4049 40.5977 33.6399 41.6787 34.1099 42.274C34.5799 42.838 35.4259 43.12 36.6479 43.12C36.7419 43.402 36.8045 43.6997 36.8359 44.013C36.8672 44.3263 36.8829 44.7023 36.8829 45.141C36.4442 45.1097 35.9116 45.0783 35.2849 45.047C34.6582 45.047 34.0002 45.0313 33.3109 45C32.6216 45 31.9479 45 31.2899 45C30.6632 45 30.0052 45 29.3159 45C28.6265 45.0313 27.9685 45.047 27.3419 45.047C26.7152 45.0783 26.1669 45.1097 25.6969 45.141C25.6969 44.7023 25.7125 44.3263 25.7439 44.013C25.7752 43.6683 25.8379 43.3707 25.9319 43.12C27.1539 43.12 27.9999 42.838 28.4699 42.274C28.9399 41.6787 29.1749 40.5977 29.1749 39.031V29.725L33.4049 25.119C33.4049 25.495 33.3892 25.918 33.3579 26.388C33.3266 26.858 33.2325 27.3593 33.0759 27.892C33.1699 27.7353 33.2639 27.563 33.3579 27.375C33.4519 27.1557 33.5929 26.9207 33.7809 26.67C34.3135 25.9493 35.1596 25.213 36.3189 24.461C37.5096 23.6777 38.9352 23.286 40.5959 23.286C41.7866 23.286 42.8832 23.5367 43.8859 24.038C44.9199 24.508 45.7502 25.307 46.3769 26.435C47.0036 27.5317 47.3169 29.0357 47.3169 30.947V39.031ZM29.1749 17.975C29.1749 17.223 29.0965 16.612 28.9399 16.142C28.8145 15.6407 28.5012 15.2647 27.9999 15.014C27.4985 14.7633 26.7152 14.638 25.6499 14.638C25.6499 14.2933 25.6812 13.98 25.7439 13.698C25.8065 13.416 25.9162 13.1497 26.0729 12.899C26.5429 12.899 27.2009 12.8207 28.0469 12.664C28.9242 12.5073 29.7702 12.3037 30.5849 12.053C31.3995 11.8023 31.9949 11.5517 32.3709 11.301C32.6529 11.395 32.8879 11.583 33.0759 11.865C33.2952 12.147 33.4049 12.5857 33.4049 13.181V19.714H29.1749V17.975ZM29.1749 17.975H33.4049V25.119L29.1749 30.43V17.975ZM64.5049 45.423C62.3743 45.423 60.5099 44.9687 58.9119 44.06C57.3139 43.12 56.0763 41.8197 55.1989 40.159C54.3216 38.467 53.8829 36.493 53.8829 34.237C53.8829 32.1063 54.3373 30.195 55.2459 28.503C56.1546 26.811 57.4079 25.4793 59.0059 24.508C60.6039 23.5367 62.4369 23.051 64.5049 23.051C66.7296 23.051 68.6253 23.521 70.1919 24.461C71.7899 25.401 73.0119 26.717 73.8579 28.409C74.7039 30.0697 75.1269 32.0123 75.1269 34.237C75.1269 36.3677 74.6726 38.279 73.7639 39.971C72.8866 41.663 71.6489 42.9947 70.0509 43.966C68.4843 44.9373 66.6356 45.423 64.5049 45.423ZM64.8809 43.167C66.7609 43.167 68.1553 42.3993 69.0639 40.864C69.9726 39.2973 70.4269 37.2763 70.4269 34.801C70.4269 32.8583 70.1293 31.182 69.5339 29.772C68.9699 28.3307 68.2023 27.234 67.2309 26.482C66.2596 25.6987 65.1943 25.307 64.0349 25.307C62.2176 25.307 60.8546 26.0433 59.9459 27.516C59.0686 28.9887 58.6299 30.9 58.6299 33.25C58.6299 35.3493 58.8806 37.151 59.3819 38.655C59.9146 40.1277 60.6509 41.2557 61.5909 42.039C62.5309 42.791 63.6276 43.167 64.8809 43.167ZM86.4646 38.091C86.4646 39.4383 86.6056 40.4723 86.8876 41.193C87.1696 41.8823 87.6239 42.368 88.2506 42.65C88.8772 42.9007 89.6762 43.0573 90.6476 43.12C90.7416 43.3707 90.8042 43.6683 90.8356 44.013C90.8669 44.3263 90.8826 44.7023 90.8826 45.141C90.4126 45.1097 89.8486 45.0783 89.1906 45.047C88.5639 45.047 87.8902 45.0313 87.1696 45C86.4489 45 85.7126 45 84.9606 45C83.8639 45 82.7046 45 81.4826 45C80.2919 45.0313 79.3832 45.0783 78.7566 45.141C78.7566 44.7023 78.7722 44.3263 78.8036 44.013C78.8349 43.6683 78.8976 43.3707 78.9916 43.12C79.8376 43.0573 80.4956 42.9163 80.9656 42.697C81.4356 42.4463 81.7646 42.039 81.9526 41.475C82.1406 40.8797 82.2346 40.065 82.2346 39.031V34.331H86.4646V38.091ZM86.4646 31.229V34.942H82.2346V29.725L86.4646 25.119C86.4646 26.1843 86.3706 27.1557 86.1826 28.033C85.9946 28.879 85.8222 29.725 85.6656 30.571L86.4646 31.229ZM85.4306 30.853C85.7752 29.9757 86.0416 29.255 86.2296 28.691C86.4176 28.127 86.6212 27.657 86.8406 27.281C87.5299 26.1843 88.3446 25.2757 89.2846 24.555C90.2246 23.8343 91.3056 23.474 92.5276 23.474C93.7182 23.474 94.7992 23.85 95.7706 24.602C95.7079 25.1033 95.6452 25.683 95.5826 26.341C95.5199 26.999 95.4729 27.657 95.4416 28.315C95.4416 28.973 95.4416 29.584 95.4416 30.148C95.1596 30.242 94.7679 30.336 94.2666 30.43C93.7966 30.524 93.2952 30.571 92.7626 30.571C92.6999 29.067 92.4492 28.08 92.0106 27.61C91.6032 27.14 91.0862 26.905 90.4596 26.905C89.9269 26.905 89.3472 27.2183 88.7206 27.845C88.0939 28.4403 87.5612 29.2393 87.1226 30.242C86.6839 31.2447 86.4646 32.357 86.4646 33.579L85.4306 30.853ZM82.2346 34.942V29.725C82.2346 28.973 82.1562 28.362 81.9996 27.892C81.8429 27.422 81.5139 27.0617 81.0126 26.811C80.5112 26.5603 79.7436 26.4193 78.7096 26.388C78.7096 26.0433 78.7409 25.73 78.8036 25.448C78.8662 25.166 78.9759 24.8997 79.1326 24.649C80.1039 24.5863 81.2162 24.3983 82.4696 24.085C83.7229 23.7717 84.7099 23.427 85.4306 23.051C85.7126 23.145 85.9476 23.3487 86.1356 23.662C86.3549 23.944 86.4646 24.4297 86.4646 25.119L82.2346 34.942Z" fill="#1F1F1F"/>
<rect x="120.585" y="7.00061" width="42.1396" height="7.01065" rx="3.50533" transform="rotate(60 120.585 7.00061)" fill="#C4C4C4"/>
<rect x="97" y="43.0096" width="41.5804" height="7.01065" rx="3.50533" transform="rotate(-60 97 43.0096)" fill="#14FB39" fill-opacity="0.92"/>
<rect x="98.1852" y="38.6127" width="19.3814" height="7.04778" rx="3.52389" fill="#14FB39"/>
<rect x="133.355" y="45.6466" width="28.7679" height="7.01066" rx="3.50533" transform="rotate(-90 133.355 45.6466)" fill="#14FB39"/>
<ellipse cx="136.783" cy="11.7125" rx="3.62621" ry="3.6262" fill="#1F1F1F"/>
</svg>
